<svg class="main-svg" xmlns="http://www.w3.org/2000/svg" xmlns:xlink="http://www.w3.org/1999/xlink" width="522.875" height="210" style="" viewBox="0 0 522.875 210"><rect x="0" y="0" width="522.875" height="210" style="fill: rgb(245, 243, 239); fill-opacity: 1;"/><defs id="defs-2aafac"><g class="clips"><clipPath id="clip2aafacxyplot" class="plotclip"><rect width="460.24" height="190"/></clipPath><clipPath class="axesclip" id="clip2aafacx"><rect x="26.150000000000002" y="0" width="460.24" height="210"/></clipPath><clipPath class="axesclip" id="clip2aafacy"><rect x="0" y="10" width="522.875" height="190"/></clipPath><clipPath class="axesclip" id="clip2aafacxy"><rect x="26.150000000000002" y="10" width="460.24" height="190"/></clipPath></g><g class="gradients"/><g class="patterns"/></defs><g class="bglayer"/><g class="layer-below"><g class="imagelayer"/><g class="shapelayer"/></g><g class="cartesianlayer"><g class="subplot xy"><g class="layer-subplot"><g class="shapelayer"><g class="shape-group" data-index="0" clip-path="url(#clip2aafacxy)"><path data-index="0" fill-rule="evenodd" d="M 40.650000000000006,171.5 C 49.34,181 68.19,175.3 105.88000000000001,175.3 L 214.59,158.2 L 214.59,51.8 L 105.88000000000001,34.7 C 68.19,34.7 49.34,29 40.650000000000006,38.5 Z" style="opacity: 1; stroke: rgb(0, 0, 0); stroke-opacity: 0; fill: rgb(74, 144, 217); fill-opacity: 0.2; stroke-width: 0px;"/></g><g class="shape-group" data-index="1" clip-path="url(#clip2aafacxy)"><path data-index="1" fill-rule="evenodd" d="M 214.59,158.2 L 294.32,158.2 L 294.32,51.8 L 214.59,51.8 Z" style="opacity: 1; stroke: rgb(0, 0, 0); stroke-opacity: 0; fill: rgb(226, 136, 0); fill-opacity: 0.2; stroke-width: 0px;"/></g><g class="shape-group" data-index="2" clip-path="url(#clip2aafacxy)"><path data-index="2" fill-rule="evenodd" d="M 294.32,158.2 L 368.25,170.02 L 368.25,38.08 L 294.32,51.8 Z" style="opacity: 1; stroke: rgb(0, 0, 0); stroke-opacity: 0; fill: rgb(184, 50, 50); fill-opacity: 0.2; stroke-width: 0px;"/></g><g class="shape-group" data-index="3" clip-path="url(#clip2aafacxy)"><path data-index="3" fill-rule="evenodd" d="M 368.25 170.02C 408.84,137.3 426.22999999999996,133.5 446.53,137.3 C 459.57,141.1 474.07,144.9 482.77,143 L 482.77,67 C 474.07,65.1 459.57,68.9 446.53,72.7 C 426.22999999999996,76.5 408.84,72.7 368.25 39.980000000000004 Z" style="opacity: 1; stroke: rgb(0, 0, 0); stroke-opacity: 0; fill: rgb(184, 50, 50); fill-opacity: 0.2; stroke-width: 0px;"/></g><g class="shape-group" data-index="43" clip-path="url(#clip2aafacxy)"><path data-index="43" fill-rule="evenodd" d="M 214.59,143 L 214.59,67 L 226.19,86 L 282.71999999999997,86 L 294.32,67 L 294.32,143 L 282.71999999999997,124, L 226.19,124 Z" style="opacity: 1; stroke: rgb(85, 85, 85); stroke-opacity: 1; fill: rgb(153, 153, 153); fill-opacity: 0.6; stroke-width: 1.3px;"/></g></g><g class="imagelayer"/></g><g class="minor-gridlayer"><g class="x"/><g class="y"/></g><g class="gridlayer"><g class="x"/><g class="y"/></g><g class="zerolinelayer"/><g class="layer-between"><g class="shapelayer"/><g class="imagelayer"/></g><path class="xlines-below"/><path class="ylines-below"/><g class="overlines-below"/><g class="xaxislayer-below"/><g class="yaxislayer-below"/><g class="overaxes-below"/><g class="overplot"><g class="xy" transform="translate(26.150000000000002,10)" clip-path="url(#clip2aafacxyplot)"><g class="scatterlayer mlayer"><g class="trace scatter trace21f46b" style="stroke-miterlimit: 2; opacity: 1;"><g class="fills"/><g class="errorbars"/><g class="lines"/><g class="points"><path class="point plotly-customdata" transform="translate(47.11,95)" d="M16,0A16,16 0 1,1 0,-16A16,16 0 0,1 16,0Z" style="opacity: 1; stroke-width: 0px; fill: rgb(0, 0, 0); fill-opacity: 0;"/></g><g class="text"/></g><g class="trace scatter trace88fb84" style="stroke-miterlimit: 2; opacity: 1;"><g class="fills"/><g class="errorbars"/><g class="lines"/><g class="points"><path class="point plotly-customdata" transform="translate(155.83,95)" d="M16,0A16,16 0 1,1 0,-16A16,16 0 0,1 16,0Z" style="opacity: 1; stroke-width: 0px; fill: rgb(0, 0, 0); fill-opacity: 0;"/></g><g class="text"/></g><g class="trace scatter tracef8c021" style="stroke-miterlimit: 2; opacity: 1;"><g class="fills"/><g class="errorbars"/><g class="lines"/><g class="points"><path class="point plotly-customdata" transform="translate(271.8,95)" d="M16,0A16,16 0 1,1 0,-16A16,16 0 0,1 16,0Z" style="opacity: 1; stroke-width: 0px; fill: rgb(0, 0, 0); fill-opacity: 0;"/></g><g class="text"/></g><g class="trace scatter trace8d5f47" style="stroke-miterlimit: 2; opacity: 1;"><g class="fills"/><g class="errorbars"/><g class="lines"/><g class="points"><path class="point plotly-customdata" transform="translate(347.9,95)" d="M16,0A16,16 0 1,1 0,-16A16,16 0 0,1 16,0Z" style="opacity: 1; stroke-width: 0px; fill: rgb(0, 0, 0); fill-opacity: 0;"/></g><g class="text"/></g><g class="trace scatter trace76c35a" style="stroke-miterlimit: 2; opacity: 1;"><g class="fills"/><g class="errorbars"/><g class="lines"/><g class="points"><path class="point plotly-customdata" transform="translate(431.25,95)" d="M16,0A16,16 0 1,1 0,-16A16,16 0 0,1 16,0Z" style="opacity: 1; stroke-width: 0px; fill: rgb(0, 0, 0); fill-opacity: 0;"/></g><g class="text"/></g></g></g></g><g class="zerolinelayer-above"/><path class="xlines-above crisp" d="M0,0" style="fill: none;"/><path class="ylines-above crisp" d="M0,0" style="fill: none;"/><g class="overlines-above"/><g class="xaxislayer-above"/><g class="yaxislayer-above"/><g class="overaxes-above"/></g></g><g class="polarlayer"/><g class="smithlayer"/><g class="ternarylayer"/><g class="geolayer"/><g class="funnelarealayer"/><g class="pielayer"/><g class="iciclelayer"/><g class="treemaplayer"/><g class="sunburstlayer"/><g class="glimages"/><defs id="topdefs-2aafac"><g class="clips"/></defs><g class="layer-above"><g class="imagelayer"/><g class="shapelayer"><g class="shape-group" data-index="4" clip-path="url(#clip2aafacxy)"><path data-index="4" fill-rule="evenodd" d="M 40.650000000000006,177.2 C 49.34,188.6 68.19,184.8 105.88000000000001,181 L 214.59,163.9 L 214.59,158.2 L 105.88000000000001,175.3 C 68.19,175.3 49.34,181 40.650000000000006,171.5 Z" style="opacity: 1; stroke: rgb(0, 0, 0); stroke-opacity: 0; fill: rgb(136, 136, 136); fill-opacity: 0.32; stroke-width: 0px;"/></g><g class="shape-group" data-index="5" clip-path="url(#clip2aafacxy)"><path data-index="5" fill-rule="evenodd" d="M 40.650000000000006,32.8 C 49.34,21.4 68.19,29 105.88000000000001,29 L 214.59,46.1 L 214.59,51.8 L 105.88000000000001,34.7 C 68.19,34.7 49.34,29 40.650000000000006,38.5 Z" style="opacity: 1; stroke: rgb(0, 0, 0); stroke-opacity: 0; fill: rgb(136, 136, 136); fill-opacity: 0.32; stroke-width: 0px;"/></g><g class="shape-group" data-index="6" clip-path="url(#clip2aafacxy)"><path data-index="6" fill-rule="evenodd" d="M 214.59,163.9 L 294.32,163.9 L 368.25 175.72L 368.25,170.02 L 294.32,158.2 L 214.59,158.2 Z" style="opacity: 1; stroke: rgb(0, 0, 0); stroke-opacity: 0; fill: rgb(136, 136, 136); fill-opacity: 0.32; stroke-width: 0px;"/></g><g class="shape-group" data-index="7" clip-path="url(#clip2aafacxy)"><path data-index="7" fill-rule="evenodd" d="M 214.59,46.1 L 294.32,46.1 L 368.25,34.28L 368.25,38.08 L 294.32,51.8 L 214.59,51.8 Z" style="opacity: 1; stroke: rgb(0, 0, 0); stroke-opacity: 0; fill: rgb(136, 136, 136); fill-opacity: 0.32; stroke-width: 0px;"/></g><g class="shape-group" data-index="8" clip-path="url(#clip2aafacxy)"><path data-index="8" fill-rule="evenodd" d="M 368.25 175.72C 408.84,143 426.22999999999996,139.2 446.53,143 C 459.57,146.8 474.07,150.6 482.77,148.7L 482.77,143 C 474.07,144.9 459.57,141.1 446.53,137.3 C 426.22999999999996,133.5 408.84,137.3 368.25,170.02 Z" style="opacity: 1; stroke: rgb(0, 0, 0); stroke-opacity: 0; fill: rgb(136, 136, 136); fill-opacity: 0.32; stroke-width: 0px;"/></g><g class="shape-group" data-index="9" clip-path="url(#clip2aafacxy)"><path data-index="9" fill-rule="evenodd" d="M 368.25 34.28 C 408.84,67 426.22999999999996,70.8 446.53,67 C 459.57,63.2 474.07,59.4 482.77,61.3 L 482.77,67 C 474.07,65.1 459.57,68.9 446.53,72.7 C 426.22999999999996,76.5 408.84,72.7 368.25,39.980000000000004 Z" style="opacity: 1; stroke: rgb(0, 0, 0); stroke-opacity: 0; fill: rgb(136, 136, 136); fill-opacity: 0.32; stroke-width: 0px;"/></g><g class="shape-group" data-index="10" clip-path="url(#clip2aafacxy)"><path data-index="10" fill-rule="evenodd" d="M 40.650000000000006,177.2 C 49.34,188.6 68.19,181 105.88000000000001,181 L 214.59,163.9 L 294.32,163.9 L 368.25 175.72C 408.84,143 426.22999999999996,139.2 446.53,143 C 459.57,146.8 474.07,150.6 482.77,148.7" style="opacity: 1; stroke: rgb(42, 42, 42); stroke-opacity: 1; fill: rgb(0, 0, 0); fill-opacity: 0; stroke-width: 1.4px;"/></g><g class="shape-group" data-index="11" clip-path="url(#clip2aafacxy)"><path data-index="11" fill-rule="evenodd" d="M 40.650000000000006,171.5 C 49.34,181 68.19,175.3 105.88000000000001,175.3 L 214.59,158.2 L 294.32,158.2 L 368.25 170.02C 408.84,137.3 426.22999999999996,133.5 446.53,137.3 C 459.57,141.1 474.07,144.9 482.77,143" style="opacity: 1; stroke: rgb(85, 85, 85); stroke-opacity: 1; fill: rgb(0, 0, 0); fill-opacity: 0; stroke-width: 1.4px;"/></g><g class="shape-group" data-index="12" clip-path="url(#clip2aafacxy)"><path data-index="12" fill-rule="evenodd" d="M482.77,148.7L482.77,143" style="opacity: 1; stroke: rgb(42, 42, 42); stroke-opacity: 1; fill: rgb(0, 0, 0); fill-opacity: 0; stroke-width: 1.4px;"/></g><g class="shape-group" data-index="13" clip-path="url(#clip2aafacxy)"><path data-index="13" fill-rule="evenodd" d="M40.650000000000006,177.2L40.650000000000006,171.5" style="opacity: 1; stroke: rgb(42, 42, 42); stroke-opacity: 1; fill: rgb(0, 0, 0); fill-opacity: 0; stroke-width: 1.4px;"/></g><g class="shape-group" data-index="14" clip-path="url(#clip2aafacxy)"><path data-index="14" fill-rule="evenodd" d="M 40.650000000000006,32.8 C 49.34,21.4 68.19,29 105.88000000000001,29 L 214.59,46.1 L 294.32,46.1 L 368.25 34.28 C 408.84,67 426.22999999999996,70.8 446.53,67 C 459.57,63.2 474.07,59.4 482.77,61.3" style="opacity: 1; stroke: rgb(42, 42, 42); stroke-opacity: 1; fill: rgb(0, 0, 0); fill-opacity: 0; stroke-width: 1.4px;"/></g><g class="shape-group" data-index="15" clip-path="url(#clip2aafacxy)"><path data-index="15" fill-rule="evenodd" d="M 40.650000000000006,38.5 C 49.34,29 68.19,34.7 105.88000000000001,34.7 L 214.59,51.8 L 294.32,51.8 L 368.25 39.980000000000004 C 408.84,72.7 426.22999999999996,76.5 446.53,72.7 C 459.57,68.9 474.07,65.1 482.77,67" style="opacity: 1; stroke: rgb(85, 85, 85); stroke-opacity: 1; fill: rgb(0, 0, 0); fill-opacity: 0; stroke-width: 1.4px;"/></g><g class="shape-group" data-index="16" clip-path="url(#clip2aafacxy)"><path data-index="16" fill-rule="evenodd" d="M482.77,67L482.77,61.3" style="opacity: 1; stroke: rgb(42, 42, 42); stroke-opacity: 1; fill: rgb(0, 0, 0); fill-opacity: 0; stroke-width: 1.4px;"/></g><g class="shape-group" data-index="17" clip-path="url(#clip2aafacxy)"><path data-index="17" fill-rule="evenodd" d="M40.650000000000006,38.5L40.650000000000006,32.8" style="opacity: 1; stroke: rgb(42, 42, 42); stroke-opacity: 1; fill: rgb(0, 0, 0); fill-opacity: 0; stroke-width: 1.4px;"/></g><g class="shape-group" data-index="18" clip-path="url(#clip2aafacxy)"><path data-index="18" fill-rule="evenodd" d="M 40.650000000000006,105 C 50.07000000000001,116.4 66.74000000000001,120.2 91.38000000000001,122.1 L 91.38000000000001,87.9 C 66.74000000000001,89.8 50.07000000000001,93.6 40.650000000000006,105 Z" style="opacity: 1; stroke: rgb(68, 68, 68); stroke-opacity: 1; fill: rgb(170, 170, 170); fill-opacity: 0.65; stroke-width: 1.6px;"/></g><g class="shape-group" data-index="19" clip-path="url(#clip2aafacxy)"><path data-index="19" fill-rule="evenodd" d="M 42.1,105 C 51.52,112.6 67.46000000000001,116.4 87.03,118.3 L 87.03,112.6 C 67.46000000000001,110.7 51.52,108.8 42.1,105 Z" style="opacity: 1; stroke: rgb(0, 0, 0); stroke-opacity: 0; fill: rgb(255, 255, 255); fill-opacity: 0.4; stroke-width: 0px;"/></g><g class="shape-group" data-index="20" clip-path="url(#clip2aafacxy)"><path data-index="20" fill-rule="evenodd" d="M 482.77,105 C 473.34,116.4 456.66999999999996,120.2 432.03,122.1 L 432.03,87.9 C 456.66999999999996,89.8 473.34,93.6 482.77,105 Z" style="opacity: 1; stroke: rgb(68, 68, 68); stroke-opacity: 1; fill: rgb(170, 170, 170); fill-opacity: 0.65; stroke-width: 1.6px;"/></g><g class="shape-group" data-index="21" clip-path="url(#clip2aafacxy)"><path data-index="21" fill-rule="evenodd" d="M 481.32,105 C 471.89,112.6 455.95,116.4 436.38,118.3 L 436.38,112.6 C 455.95,110.7 471.89,108.8 481.32,105 Z" style="opacity: 1; stroke: rgb(0, 0, 0); stroke-opacity: 0; fill: rgb(255, 255, 255); fill-opacity: 0.4; stroke-width: 0px;"/></g><g class="shape-group" data-index="22" clip-path="url(#clip2aafacxy)"><path data-index="22" fill-rule="evenodd" d="M91.38000000000001,115.07H432.03V94.93H91.38000000000001Z" style="opacity: 1; stroke: rgb(85, 85, 85); stroke-opacity: 1; fill: rgb(153, 153, 153); fill-opacity: 0.6; stroke-width: 1.3px;"/></g><g class="shape-group" data-index="23" clip-path="url(#clip2aafacxy)"><path data-index="23" fill-rule="evenodd" d="M91.38000000000001,115.07H432.03V111.08H91.38000000000001Z" style="opacity: 1; stroke: rgb(0, 0, 0); stroke-opacity: 0; fill: rgb(255, 255, 255); fill-opacity: 0.28; stroke-width: 0px;"/></g><g class="shape-group" data-index="24" clip-path="url(#clip2aafacxy)"><path data-index="24" fill-rule="evenodd" d="M113.12,113.93H362.45V96.07H113.12Z" style="opacity: 1; stroke: rgb(68, 68, 68); stroke-opacity: 1; fill: rgb(119, 119, 119); fill-opacity: 0.75; stroke-width: 1.1px;"/></g><g class="shape-group" data-index="25" clip-path="url(#clip2aafacxy)"><path data-index="25" fill-rule="evenodd" d="M111.67,94.93L116.02000000000001,174.39" style="opacity: 1; stroke: rgb(26, 77, 143); stroke-opacity: 0.72; fill: rgb(0, 0, 0); fill-opacity: 0; stroke-width: 4px;"/></g><g class="shape-group" data-index="26" clip-path="url(#clip2aafacxy)"><path data-index="26" fill-rule="evenodd" d="M111.67,115.07L116.02000000000001,35.61" style="opacity: 1; stroke: rgb(26, 77, 143); stroke-opacity: 0.72; fill: rgb(0, 0, 0); fill-opacity: 0; stroke-width: 4px;"/></g><g class="shape-group" data-index="27" clip-path="url(#clip2aafacxy)"><path data-index="27" fill-rule="evenodd" d="M123.27000000000001,94.93L127.62,172.56" style="opacity: 1; stroke: rgb(26, 77, 143); stroke-opacity: 0.72; fill: rgb(0, 0, 0); fill-opacity: 0; stroke-width: 4px;"/></g><g class="shape-group" data-index="28" clip-path="url(#clip2aafacxy)"><path data-index="28" fill-rule="evenodd" d="M123.27000000000001,115.07L127.62,37.44" style="opacity: 1; stroke: rgb(26, 77, 143); stroke-opacity: 0.72; fill: rgb(0, 0, 0); fill-opacity: 0; stroke-width: 4px;"/></g><g class="shape-group" data-index="29" clip-path="url(#clip2aafacxy)"><path data-index="29" fill-rule="evenodd" d="M134.87,94.93L139.22,170.74" style="opacity: 1; stroke: rgb(26, 77, 143); stroke-opacity: 0.72; fill: rgb(0, 0, 0); fill-opacity: 0; stroke-width: 4px;"/></g><g class="shape-group" data-index="30" clip-path="url(#clip2aafacxy)"><path data-index="30" fill-rule="evenodd" d="M134.87,115.07L139.22,39.260000000000005" style="opacity: 1; stroke: rgb(26, 77, 143); stroke-opacity: 0.72; fill: rgb(0, 0, 0); fill-opacity: 0; stroke-width: 4px;"/></g><g class="shape-group" data-index="31" clip-path="url(#clip2aafacxy)"><path data-index="31" fill-rule="evenodd" d="M146.46,94.93L150.81,168.92" style="opacity: 1; stroke: rgb(26, 77, 143); stroke-opacity: 0.72; fill: rgb(0, 0, 0); fill-opacity: 0; stroke-width: 4px;"/></g><g class="shape-group" data-index="32" clip-path="url(#clip2aafacxy)"><path data-index="32" fill-rule="evenodd" d="M146.46,115.07L150.81,41.08" style="opacity: 1; stroke: rgb(26, 77, 143); stroke-opacity: 0.72; fill: rgb(0, 0, 0); fill-opacity: 0; stroke-width: 4px;"/></g><g class="shape-group" data-index="33" clip-path="url(#clip2aafacxy)"><path data-index="33" fill-rule="evenodd" d="M158.06,94.93L162.41,167.09" style="opacity: 1; stroke: rgb(26, 77, 143); stroke-opacity: 0.72; fill: rgb(0, 0, 0); fill-opacity: 0; stroke-width: 4px;"/></g><g class="shape-group" data-index="34" clip-path="url(#clip2aafacxy)"><path data-index="34" fill-rule="evenodd" d="M158.06,115.07L162.41,42.91" style="opacity: 1; stroke: rgb(26, 77, 143); stroke-opacity: 0.72; fill: rgb(0, 0, 0); fill-opacity: 0; stroke-width: 4px;"/></g><g class="shape-group" data-index="35" clip-path="url(#clip2aafacxy)"><path data-index="35" fill-rule="evenodd" d="M169.66,94.93L174.01000000000002,165.27" style="opacity: 1; stroke: rgb(26, 77, 143); stroke-opacity: 0.72; fill: rgb(0, 0, 0); fill-opacity: 0; stroke-width: 4px;"/></g><g class="shape-group" data-index="36" clip-path="url(#clip2aafacxy)"><path data-index="36" fill-rule="evenodd" d="M169.66,115.07L174.01000000000002,44.73" style="opacity: 1; stroke: rgb(26, 77, 143); stroke-opacity: 0.72; fill: rgb(0, 0, 0); fill-opacity: 0; stroke-width: 4px;"/></g><g class="shape-group" data-index="37" clip-path="url(#clip2aafacxy)"><path data-index="37" fill-rule="evenodd" d="M181.25,94.93L185.6,163.44" style="opacity: 1; stroke: rgb(26, 77, 143); stroke-opacity: 0.72; fill: rgb(0, 0, 0); fill-opacity: 0; stroke-width: 4px;"/></g><g class="shape-group" data-index="38" clip-path="url(#clip2aafacxy)"><path data-index="38" fill-rule="evenodd" d="M181.25,115.07L185.6,46.56" style="opacity: 1; stroke: rgb(26, 77, 143); stroke-opacity: 0.72; fill: rgb(0, 0, 0); fill-opacity: 0; stroke-width: 4px;"/></g><g class="shape-group" data-index="39" clip-path="url(#clip2aafacxy)"><path data-index="39" fill-rule="evenodd" d="M192.85,94.93L197.20000000000002,161.62" style="opacity: 1; stroke: rgb(26, 77, 143); stroke-opacity: 0.72; fill: rgb(0, 0, 0); fill-opacity: 0; stroke-width: 4px;"/></g><g class="shape-group" data-index="40" clip-path="url(#clip2aafacxy)"><path data-index="40" fill-rule="evenodd" d="M192.85,115.07L197.20000000000002,48.38" style="opacity: 1; stroke: rgb(26, 77, 143); stroke-opacity: 0.72; fill: rgb(0, 0, 0); fill-opacity: 0; stroke-width: 4px;"/></g><g class="shape-group" data-index="41" clip-path="url(#clip2aafacxy)"><path data-index="41" fill-rule="evenodd" d="M204.45000000000002,94.93L208.8,159.8" style="opacity: 1; stroke: rgb(26, 77, 143); stroke-opacity: 0.72; fill: rgb(0, 0, 0); fill-opacity: 0; stroke-width: 4px;"/></g><g class="shape-group" data-index="42" clip-path="url(#clip2aafacxy)"><path data-index="42" fill-rule="evenodd" d="M204.45000000000002,115.07L208.8,50.2" style="opacity: 1; stroke: rgb(26, 77, 143); stroke-opacity: 0.72; fill: rgb(0, 0, 0); fill-opacity: 0; stroke-width: 4px;"/></g><g class="shape-group" data-index="44" clip-path="url(#clip2aafacxy)"><path data-index="44" fill-rule="evenodd" d="M303.73999999999995,94.93L299.39,159" style="opacity: 1; stroke: rgb(184, 50, 50); stroke-opacity: 0.78; fill: rgb(0, 0, 0); fill-opacity: 0; stroke-width: 4px;"/></g><g class="shape-group" data-index="45" clip-path="url(#clip2aafacxy)"><path data-index="45" fill-rule="evenodd" d="M303.73999999999995,115.07L299.39,51" style="opacity: 1; stroke: rgb(184, 50, 50); stroke-opacity: 0.78; fill: rgb(0, 0, 0); fill-opacity: 0; stroke-width: 4px;"/></g><g class="shape-group" data-index="46" clip-path="url(#clip2aafacxy)"><path data-index="46" fill-rule="evenodd" d="M315.34,94.93L310.98999999999995,160.82" style="opacity: 1; stroke: rgb(184, 50, 50); stroke-opacity: 0.78; fill: rgb(0, 0, 0); fill-opacity: 0; stroke-width: 4px;"/></g><g class="shape-group" data-index="47" clip-path="url(#clip2aafacxy)"><path data-index="47" fill-rule="evenodd" d="M315.34,115.07L310.98999999999995,49.18" style="opacity: 1; stroke: rgb(184, 50, 50); stroke-opacity: 0.78; fill: rgb(0, 0, 0); fill-opacity: 0; stroke-width: 4px;"/></g><g class="shape-group" data-index="48" clip-path="url(#clip2aafacxy)"><path data-index="48" fill-rule="evenodd" d="M326.94,94.93L322.59,162.65" style="opacity: 1; stroke: rgb(184, 50, 50); stroke-opacity: 0.78; fill: rgb(0, 0, 0); fill-opacity: 0; stroke-width: 4px;"/></g><g class="shape-group" data-index="49" clip-path="url(#clip2aafacxy)"><path data-index="49" fill-rule="evenodd" d="M326.94,115.07L322.59,47.35" style="opacity: 1; stroke: rgb(184, 50, 50); stroke-opacity: 0.78; fill: rgb(0, 0, 0); fill-opacity: 0; stroke-width: 4px;"/></g><g class="shape-group" data-index="50" clip-path="url(#clip2aafacxy)"><path data-index="50" fill-rule="evenodd" d="M338.53,94.93L334.17999999999995,164.47" style="opacity: 1; stroke: rgb(184, 50, 50); stroke-opacity: 0.78; fill: rgb(0, 0, 0); fill-opacity: 0; stroke-width: 4px;"/></g><g class="shape-group" data-index="51" clip-path="url(#clip2aafacxy)"><path data-index="51" fill-rule="evenodd" d="M338.53,115.07L334.17999999999995,45.53" style="opacity: 1; stroke: rgb(184, 50, 50); stroke-opacity: 0.78; fill: rgb(0, 0, 0); fill-opacity: 0; stroke-width: 4px;"/></g><g class="shape-group" data-index="52" clip-path="url(#clip2aafacxy)"><path data-index="52" fill-rule="evenodd" d="M350.13,94.93L345.78,166.29" style="opacity: 1; stroke: rgb(184, 50, 50); stroke-opacity: 0.78; fill: rgb(0, 0, 0); fill-opacity: 0; stroke-width: 4px;"/></g><g class="shape-group" data-index="53" clip-path="url(#clip2aafacxy)"><path data-index="53" fill-rule="evenodd" d="M350.13,115.07L345.78,43.71" style="opacity: 1; stroke: rgb(184, 50, 50); stroke-opacity: 0.78; fill: rgb(0, 0, 0); fill-opacity: 0; stroke-width: 4px;"/></g><g class="shape-group" data-index="54" clip-path="url(#clip2aafacxy)"><path data-index="54" fill-rule="evenodd" d="M361.72999999999996,94.93L357.38,168.12" style="opacity: 1; stroke: rgb(184, 50, 50); stroke-opacity: 0.78; fill: rgb(0, 0, 0); fill-opacity: 0; stroke-width: 4px;"/></g><g class="shape-group" data-index="55" clip-path="url(#clip2aafacxy)"><path data-index="55" fill-rule="evenodd" d="M361.72999999999996,115.07L357.38,41.879999999999995" style="opacity: 1; stroke: rgb(184, 50, 50); stroke-opacity: 0.78; fill: rgb(0, 0, 0); fill-opacity: 0; stroke-width: 4px;"/></g><g class="shape-group" data-index="56" clip-path="url(#clip2aafacxy)"><path data-index="56" fill-rule="evenodd" d="M40.650000000000006,196.2L40.650000000000006,13.8" style="opacity: 1; stroke: rgb(120, 115, 111); stroke-opacity: 1; fill: rgb(0, 0, 0); fill-opacity: 0; stroke-dasharray: 3px, 3px; stroke-width: 0.8px;"/></g><g class="shape-group" data-index="57" clip-path="url(#clip2aafacxy)"><path data-index="57" fill-rule="evenodd" d="M105.88000000000001,196.2L105.88000000000001,13.8" style="opacity: 1; stroke: rgb(120, 115, 111); stroke-opacity: 1; fill: rgb(0, 0, 0); fill-opacity: 0; stroke-dasharray: 3px, 3px; stroke-width: 0.8px;"/></g><g class="shape-group" data-index="58" clip-path="url(#clip2aafacxy)"><path data-index="58" fill-rule="evenodd" d="M214.59,196.2L214.59,13.8" style="opacity: 1; stroke: rgb(120, 115, 111); stroke-opacity: 1; fill: rgb(0, 0, 0); fill-opacity: 0; stroke-dasharray: 3px, 3px; stroke-width: 0.8px;"/></g><g class="shape-group" data-index="59" clip-path="url(#clip2aafacxy)"><path data-index="59" fill-rule="evenodd" d="M294.32,196.2L294.32,13.8" style="opacity: 1; stroke: rgb(120, 115, 111); stroke-opacity: 1; fill: rgb(0, 0, 0); fill-opacity: 0; stroke-dasharray: 3px, 3px; stroke-width: 0.8px;"/></g><g class="shape-group" data-index="60" clip-path="url(#clip2aafacxy)"><path data-index="60" fill-rule="evenodd" d="M352.29999999999995,196.2L352.29999999999995,13.8" style="opacity: 1; stroke: rgb(120, 115, 111); stroke-opacity: 1; fill: rgb(0, 0, 0); fill-opacity: 0; stroke-dasharray: 3px, 3px; stroke-width: 0.8px;"/></g><g class="shape-group" data-index="61" clip-path="url(#clip2aafacxy)"><path data-index="61" fill-rule="evenodd" d="M426.22999999999996,196.2L426.22999999999996,13.8" style="opacity: 1; stroke: rgb(120, 115, 111); stroke-opacity: 1; fill: rgb(0, 0, 0); fill-opacity: 0; stroke-dasharray: 3px, 3px; stroke-width: 0.8px;"/></g><g class="shape-group" data-index="62" clip-path="url(#clip2aafacxy)"><path data-index="62" fill-rule="evenodd" d="M482.77,196.2L482.77,13.8" style="opacity: 1; stroke: rgb(120, 115, 111); stroke-opacity: 1; fill: rgb(0, 0, 0); fill-opacity: 0; stroke-dasharray: 3px, 3px; stroke-width: 0.8px;"/></g></g></g><g class="infolayer"><g class="g-gtitle"/><g class="annotation" data-index="0" style="opacity: 1;"><g class="annotation-text-g" transform="rotate(0,40.650000000000006,207)"><g class="cursor-pointer" transform="translate(36,200)"><rect class="bg" x="0.5" y="0.5" width="8" height="13" style="stroke-width: 1px; stroke: rgb(0, 0, 0); stroke-opacity: 0; fill: rgb(0, 0, 0); fill-opacity: 0;"/><text class="annotation-text" text-anchor="middle" x="4.25" y="10" style="font-family: mono; font-size: 9px; fill: rgb(97, 98, 100); fill-opacity: 1; white-space: pre;"><tspan style="font-weight:bold">0</tspan></text></g></g></g><g class="annotation" data-index="1" style="opacity: 1;"><g class="annotation-text-g" transform="rotate(0,105.88000000000001,207)"><g class="cursor-pointer" transform="translate(101,200)"><rect class="bg" x="0.5" y="0.5" width="8" height="13" style="stroke-width: 1px; stroke: rgb(0, 0, 0); stroke-opacity: 0; fill: rgb(0, 0, 0); fill-opacity: 0;"/><text class="annotation-text" text-anchor="middle" x="4.9169921875" y="10" style="font-family: mono; font-size: 9px; fill: rgb(97, 98, 100); fill-opacity: 1; white-space: pre;"><tspan style="font-weight:bold">2</tspan></text></g></g></g><g class="annotation" data-index="2" style="opacity: 1;"><g class="annotation-text-g" transform="rotate(0,214.59,207)"><g class="cursor-pointer" transform="translate(210,200)"><rect class="bg" x="0.5" y="0.5" width="8" height="13" style="stroke-width: 1px; stroke: rgb(0, 0, 0); stroke-opacity: 0; fill: rgb(0, 0, 0); fill-opacity: 0;"/><text class="annotation-text" text-anchor="middle" x="4.9169921875" y="10" style="font-family: mono; font-size: 9px; fill: rgb(97, 98, 100); fill-opacity: 1; white-space: pre;"><tspan style="font-weight:bold">3</tspan></text></g></g></g><g class="annotation" data-index="3" style="opacity: 1;"><g class="annotation-text-g" transform="rotate(0,294.32,207)"><g class="cursor-pointer" transform="translate(290,200)"><rect class="bg" x="0.5" y="0.5" width="8" height="13" style="stroke-width: 1px; stroke: rgb(0, 0, 0); stroke-opacity: 0; fill: rgb(0, 0, 0); fill-opacity: 0;"/><text class="annotation-text" text-anchor="middle" x="4.25" y="10" style="font-family: mono; font-size: 9px; fill: rgb(97, 98, 100); fill-opacity: 1; white-space: pre;"><tspan style="font-weight:bold">4</tspan></text></g></g></g><g class="annotation" data-index="4" style="opacity: 1;"><g class="annotation-text-g" transform="rotate(0,352.29999999999995,207)"><g class="cursor-pointer" transform="translate(348,200)"><rect class="bg" x="0.5" y="0.5" width="8" height="13" style="stroke-width: 1px; stroke: rgb(0, 0, 0); stroke-opacity: 0; fill: rgb(0, 0, 0); fill-opacity: 0;"/><text class="annotation-text" text-anchor="middle" x="4.25" y="10" style="font-family: mono; font-size: 9px; fill: rgb(97, 98, 100); fill-opacity: 1; white-space: pre;"><tspan style="font-weight:bold">5</tspan></text></g></g></g><g class="annotation" data-index="5" style="opacity: 1;"><g class="annotation-text-g" transform="rotate(0,426.22999999999996,207)"><g class="cursor-pointer" transform="translate(422,200)"><rect class="bg" x="0.5" y="0.5" width="8" height="13" style="stroke-width: 1px; stroke: rgb(0, 0, 0); stroke-opacity: 0; fill: rgb(0, 0, 0); fill-opacity: 0;"/><text class="annotation-text" text-anchor="middle" x="4.25" y="10" style="font-family: mono; font-size: 9px; fill: rgb(97, 98, 100); fill-opacity: 1; white-space: pre;"><tspan style="font-weight:bold">8</tspan></text></g></g></g><g class="annotation" data-index="6" style="opacity: 1;"><g class="annotation-text-g" transform="rotate(0,482.77,207)"><g class="cursor-pointer" transform="translate(478,200)"><rect class="bg" x="0.5" y="0.5" width="8" height="13" style="stroke-width: 1px; stroke: rgb(0, 0, 0); stroke-opacity: 0; fill: rgb(0, 0, 0); fill-opacity: 0;"/><text class="annotation-text" text-anchor="middle" x="4.25" y="10" style="font-family: mono; font-size: 9px; fill: rgb(97, 98, 100); fill-opacity: 1; white-space: pre;"><tspan style="font-weight:bold">9</tspan></text></g></g></g></g></svg>